<svg width="56" height="56" viewBox="0 0 56 56" fill="none" xmlns="http://www.w3.org/2000/svg">
<rect width="56" height="56" rx="16" fill="url(#paint0_radial_5976_2037)"/>
<path d="M36.968 45.6576L28.988 38.9042C28.456 38.459 27.62 38.459 27.088 38.9042L19.032 45.6576C18.044 46.474 16.6 45.7319 16.6 44.396V27.7722C16.6 25.5458 18.272 23.7647 20.4 23.7647H35.6C37.728 23.7647 39.4 25.5458 39.4 27.7722V44.4702C39.4 45.7319 37.956 46.474 36.968 45.6576Z" fill="white"/>
<path d="M35.1385 20.6505H12.5604C12.334 20.6505 12.1164 20.7196 11.9322 20.848L10.7172 21.6953C9.99866 22.1963 9 21.6954 9 20.834V17.6643C9 16.8028 9.99867 16.3019 10.7172 16.803L11.9322 17.6502C12.1164 17.7787 12.334 17.8478 12.5605 17.8478H35.1385C44.8564 17.8478 41.5036 10.0064 44.8564 10C47.7145 9.99453 47.7145 29.0588 44.8564 29.0588C41.5036 29.0588 44.4991 20.6505 35.1385 20.6505Z" fill="white"/>
<defs>
<radialGradient id="paint0_radial_5976_2037" cx="0" cy="0" r="1" gradientUnits="userSpaceOnUse" gradientTransform="translate(56 56) rotate(-135) scale(79.196 118.441)">
<stop stop-color="#5445FF"/>
<stop offset="1" stop-color="#636AFF"/>
</radialGradient>
</defs>
</svg>
